<svg width="21" height="20" viewBox="0 0 21 20" fill="none" xmlns="http://www.w3.org/2000/svg">
  <path d="M10.5854 0.363983C5.27022 0.363983 0.960449 4.78547 0.960449 10.2339C0.960449 14.5952 3.71904 18.2905 7.54326 19.5968C7.5969 19.6084 7.65165 19.6142 7.70654 19.614C8.06318 19.614 8.20068 19.3519 8.20068 19.1241C8.20068 18.8878 8.19209 18.2691 8.18779 17.4441C7.86941 17.5187 7.5437 17.5576 7.2167 17.5601C5.36475 17.5601 4.94365 16.1206 4.94365 16.1206C4.50537 14.982 3.87373 14.6769 3.87373 14.6769C3.03584 14.0882 3.86943 14.071 3.93389 14.071H3.93818C4.90498 14.157 5.41201 15.0937 5.41201 15.0937C5.89326 15.9359 6.53779 16.1722 7.11357 16.1722C7.49429 16.1646 7.86912 16.0767 8.21357 15.9144C8.29951 15.2784 8.54873 14.8445 8.82373 14.5952C6.68818 14.346 4.44092 13.4995 4.44092 9.71828C4.44092 8.63976 4.81475 7.75891 5.4292 7.07141C5.33037 6.82219 4.99951 5.81672 5.52373 4.45891C5.59405 4.44208 5.66632 4.43485 5.73857 4.43742C6.08662 4.43742 6.87295 4.57062 8.17061 5.47297C9.74736 5.03181 11.4149 5.03181 12.9917 5.47297C14.2894 4.57062 15.0757 4.43742 15.4237 4.43742C15.496 4.43485 15.5683 4.44208 15.6386 4.45891C16.1628 5.81672 15.8319 6.82219 15.7331 7.07141C16.3476 7.7632 16.7214 8.64406 16.7214 9.71828C16.7214 13.5081 14.4698 14.3417 12.3257 14.5866C12.6694 14.8917 12.9788 15.4933 12.9788 16.4128C12.9788 17.732 12.9659 18.7976 12.9659 19.1198C12.9659 19.3519 13.0991 19.614 13.4558 19.614C13.5135 19.6142 13.5711 19.6085 13.6276 19.5968C17.4562 18.2905 20.2104 14.5909 20.2104 10.2339C20.2104 4.78547 15.9007 0.363983 10.5854 0.363983Z" fill="white"/>
</svg>
