<svg width="18" height="19" viewBox="0 0 18 19" fill="none" xmlns="http://www.w3.org/2000/svg">
<path d="M17.2217 8.2126L17.1334 7.83799H8.99123V11.2841H13.8561C13.351 13.6825 11.0073 14.945 9.0928 14.945C7.69983 14.945 6.23147 14.3591 5.25959 13.4173C4.74683 12.9125 4.33868 12.3114 4.0585 11.6487C3.77832 10.9859 3.63161 10.2743 3.62678 9.55478C3.62678 8.10322 4.27913 6.65127 5.22834 5.69619C6.17756 4.74111 7.61116 4.20674 9.03655 4.20674C10.669 4.20674 11.8389 5.07354 12.2764 5.46885L14.7252 3.03291C14.0069 2.40166 12.0334 0.811035 8.95764 0.811035C6.58459 0.811035 4.3092 1.72002 2.64592 3.37783C1.00452 5.01025 0.154907 7.3708 0.154907 9.56104C0.154907 11.7513 0.958814 13.9938 2.54944 15.6392C4.24905 17.3938 6.65608 18.311 9.13459 18.311C11.3897 18.311 13.5272 17.4274 15.0506 15.8243C16.5483 14.2462 17.3229 12.0626 17.3229 9.77353C17.3229 8.80986 17.226 8.2376 17.2217 8.2126Z" fill="white"/>
</svg>
