<svg width="20" height="21" viewBox="0 0 20 21" fill="none" xmlns="http://www.w3.org/2000/svg">
<path d="M9.73886 0.936035C4.42363 0.936035 0.113861 5.35752 0.113861 10.806C0.113861 15.1673 2.87245 18.8626 6.69667 20.1688C6.75031 20.1805 6.80506 20.1863 6.85995 20.186C7.2166 20.186 7.3541 19.9239 7.3541 19.6962C7.3541 19.4599 7.3455 18.8411 7.3412 18.0161C7.02282 18.0908 6.69711 18.1297 6.37011 18.1321C4.51816 18.1321 4.09706 16.6927 4.09706 16.6927C3.65878 15.554 3.02714 15.2489 3.02714 15.2489C2.18925 14.6603 3.02285 14.6431 3.0873 14.6431H3.0916C4.05839 14.729 4.56542 15.6657 4.56542 15.6657C5.04667 16.5079 5.6912 16.7442 6.26699 16.7442C6.6477 16.7366 7.02253 16.6488 7.36699 16.4864C7.45292 15.8505 7.70214 15.4165 7.97714 15.1673C5.8416 14.9181 3.59433 14.0716 3.59433 10.2903C3.59433 9.21182 3.96816 8.33096 4.58261 7.64346C4.48378 7.39424 4.15292 6.38877 4.67714 5.03096C4.74746 5.01413 4.81973 5.0069 4.89199 5.00947C5.24003 5.00947 6.02636 5.14268 7.32402 6.04502C8.90077 5.60386 10.5684 5.60386 12.1451 6.04502C13.4428 5.14268 14.2291 5.00947 14.5771 5.00947C14.6494 5.0069 14.7217 5.01413 14.792 5.03096C15.3162 6.38877 14.9853 7.39424 14.8865 7.64346C15.501 8.33525 15.8748 9.21611 15.8748 10.2903C15.8748 14.0802 13.6232 14.9138 11.4791 15.1587C11.8228 15.4638 12.1322 16.0653 12.1322 16.9849C12.1322 18.304 12.1193 19.3696 12.1193 19.6919C12.1193 19.9239 12.2525 20.186 12.6092 20.186C12.6669 20.1863 12.7245 20.1805 12.781 20.1688C16.6096 18.8626 19.3639 15.163 19.3639 10.806C19.3639 5.35752 15.0541 0.936035 9.73886 0.936035Z" fill="black"/>
</svg>
