<svg width="18" height="19" viewBox="0 0 18 19" fill="none" xmlns="http://www.w3.org/2000/svg">
<path d="M17.2217 8.2126L17.1334 7.83799H8.9912V11.2841H13.856C13.351 13.6825 11.0072 14.945 9.09277 14.945C7.6998 14.945 6.23144 14.3591 5.25956 13.4173C4.7468 12.9125 4.33865 12.3114 4.05847 11.6487C3.77829 10.9859 3.63158 10.2743 3.62675 9.55478C3.62675 8.10322 4.2791 6.65127 5.22831 5.69619C6.17753 4.74111 7.61113 4.20674 9.03652 4.20674C10.6689 4.20674 11.8389 5.07354 12.2764 5.46885L14.7252 3.03291C14.0068 2.40166 12.0334 0.811035 8.95761 0.811035C6.58456 0.811035 4.30917 1.72002 2.64589 3.37783C1.00449 5.01025 0.154877 7.3708 0.154877 9.56104C0.154877 11.7513 0.958783 13.9938 2.54941 15.6392C4.24902 17.3938 6.65605 18.311 9.13456 18.311C11.3896 18.311 13.5271 17.4274 15.0506 15.8243C16.5482 14.2462 17.3228 12.0626 17.3228 9.77353C17.3228 8.80986 17.226 8.2376 17.2217 8.2126Z" fill="black"/>
</svg>
