<svg width="21" height="21" viewBox="0 0 21 21" fill="none" xmlns="http://www.w3.org/2000/svg">
<path fill-rule="evenodd" clip-rule="evenodd" d="M20.7301 10.561C20.7301 16.0839 16.2529 20.561 10.7301 20.561C5.20722 20.561 0.730072 16.0839 0.730072 10.561C0.730072 5.03819 5.20722 0.561035 10.7301 0.561035C16.2529 0.561035 20.7301 5.03819 20.7301 10.561ZM11.0884 7.94349C10.1158 8.34804 8.17183 9.18538 5.25663 10.4555C4.78325 10.6437 4.53527 10.8279 4.51269 11.008C4.47454 11.3123 4.85565 11.4321 5.37461 11.5953C5.44521 11.6175 5.51835 11.6405 5.59333 11.6649C6.10392 11.8309 6.79074 12.025 7.14779 12.0327C7.47167 12.0397 7.83316 11.9062 8.23225 11.6322C10.956 9.79355 12.362 8.86422 12.4503 8.84419C12.5126 8.83005 12.5989 8.81228 12.6574 8.86425C12.7158 8.91622 12.7101 9.01465 12.7039 9.04105C12.6661 9.202 11.1702 10.5928 10.396 11.3125C10.1546 11.5369 9.98345 11.6961 9.94845 11.7324C9.87006 11.8138 9.79016 11.8909 9.71337 11.9649C9.23903 12.4222 8.88331 12.7651 9.73306 13.325C10.1414 13.5941 10.4682 13.8167 10.7942 14.0387C11.1502 14.2811 11.5053 14.5229 11.9647 14.8241C12.0818 14.9008 12.1936 14.9805 12.3025 15.0582C12.7168 15.3535 13.089 15.6189 13.5489 15.5766C13.8161 15.552 14.0921 15.3007 14.2323 14.5513C14.5636 12.7803 15.2147 8.94309 15.3652 7.36186C15.3784 7.22332 15.3618 7.04602 15.3485 6.96819C15.3352 6.89036 15.3074 6.77947 15.2062 6.69738C15.0864 6.60016 14.9014 6.57966 14.8187 6.58111C14.4426 6.58774 13.8655 6.78839 11.0884 7.94349Z" fill="black"/>
</svg>
